<svg id="svg" xmlns="http://www.w3.org/2000/svg" xmlns:xlink="http://www.w3.org/1999/xlink" width="400" height="337.7049180327869" viewBox="0, 0, 400,337.7049180327869"><g id="svgg"><path id="path0" d="M225.342 3.081 C 212.871 8.746,205.451 21.840,206.988 35.470 C 210.282 64.694,250.391 73.017,265.303 47.571 C 280.764 21.189,253.153 -9.551,225.342 3.081 M184.400 47.636 C 175.781 50.145,105.505 122.236,104.036 130.076 C 100.796 147.366,106.308 153.165,147.541 175.848 L 181.148 194.336 181.967 232.246 C 182.878 274.381,183.041 274.985,194.466 278.756 C 201.955 281.227,208.421 279.525,214.114 273.583 L 218.852 268.637 218.852 218.045 C 218.852 157.299,221.104 163.078,191.130 146.895 L 170.198 135.594 187.940 117.797 C 209.192 96.479,205.794 96.753,217.750 115.395 C 231.701 137.148,229.052 136.066,268.320 136.066 C 308.041 136.066,313.115 134.377,313.115 121.160 C 313.115 111.635,307.387 109.836,277.070 109.836 L 249.073 109.836 236.681 90.574 C 213.442 54.451,212.689 53.477,204.981 49.590 C 197.288 45.711,192.558 45.262,184.400 47.636 M66.393 175.442 C 2.622 188.208,-21.681 266.706,23.982 312.425 C 66.805 355.300,139.306 338.438,159.065 281.007 C 178.931 223.265,126.404 163.429,66.393 175.442 M293.443 179.141 C 216.817 205.361,218.350 311.559,295.678 333.969 C 364.588 353.940,423.690 281.182,389.960 217.899 C 371.743 183.719,329.563 166.781,293.443 179.141 M93.097 193.377 C 126.246 199.664,150.235 233.196,144.352 265.020 C 131.523 334.420,34.248 335.890,19.453 266.908 C 10.496 225.140,50.415 185.283,93.097 193.377 M344.466 198.899 C 385.201 218.437,394.091 268.504,362.445 300.150 C 307.734 354.861,223.143 282.906,267.087 219.036 C 283.078 195.794,318.677 186.530,344.466 198.899 " stroke="none" fill="#000000" fill-rule="evenodd"></path></g></svg>