<svg id="svg" xmlns="http://www.w3.org/2000/svg" xmlns:xlink="http://www.w3.org/1999/xlink" width="400" height="400" viewBox="0, 0, 400,400"><g id="svgg"><path id="path0" d="M202.264 4.119 C 174.680 16.906,177.211 57.982,206.061 65.738 C 241.453 75.252,263.019 30.183,233.755 7.862 C 226.220 2.115,210.594 0.258,202.264 4.119 M189.084 78.919 C 181.641 83.175,122.178 130.531,116.925 136.385 C 113.956 139.694,99.556 200.752,99.556 210.032 C 99.556 224.840,117.154 230.510,125.166 218.283 C 126.643 216.029,130.316 202.593,133.329 188.426 C 136.341 174.258,139.468 161.067,140.276 159.111 C 141.604 155.901,163.556 137.222,163.556 139.303 C 163.556 139.783,160.017 155.636,155.692 174.532 C 151.367 193.428,144.162 225.289,139.682 245.333 C 128.357 296.001,129.663 292.538,108.504 328.000 C 98.002 345.600,88.093 362.560,86.483 365.689 C 75.925 386.211,94.408 406.636,114.756 396.933 C 120.327 394.276,124.663 388.035,147.181 350.266 L 173.174 306.667 179.037 280.143 C 182.261 265.555,185.159 253.359,185.477 253.042 C 185.794 252.724,196.660 264.069,209.623 278.252 L 233.191 304.040 240.326 341.798 C 248.775 386.511,251.392 393.666,260.731 397.568 C 275.001 403.530,291.566 393.622,291.546 379.137 C 291.535 370.804,276.098 288.186,274.053 285.512 C 269.613 279.705,251.019 257.402,234.079 237.564 L 214.825 215.016 221.292 186.174 C 230.206 146.424,229.211 147.811,237.489 163.597 C 247.868 183.391,296.911 217.718,308.510 213.309 C 327.599 206.051,322.174 194.135,289.671 171.927 L 267.342 156.671 249.928 122.335 C 240.351 103.451,231.199 86.515,229.591 84.700 C 220.440 74.372,201.709 71.699,189.084 78.919 " stroke="none" fill="#000000" fill-rule="evenodd"></path></g></svg>